<svg width="14" height="20" viewBox="0 0 14 20" fill="none" xmlns="http://www.w3.org/2000/svg">
<rect width="1.29433" height="3.15817" rx="0.647167" transform="matrix(0.710922 -0.703271 0.660056 0.751217 1.01001 3.91028)" fill="#F5DEB3"/>
<rect width="1.38233" height="4.03577" rx="0.691166" transform="matrix(0.852748 0.522323 -0.478004 0.878358 4.19385 2)" fill="#F5DEB3"/>
<rect x="6" y="4" width="5" height="2" rx="1" fill="#F5DEB3"/>
<rect x="2" y="7" width="2" height="2" rx="1" fill="#F5DEB3"/>
<rect x="5" y="7" width="6" height="2" rx="1" fill="#F5DEB3"/>
<rect x="2" y="10" width="2" height="2" rx="1" fill="#F5DEB3"/>
<rect x="5" y="10" width="6" height="2" rx="1" fill="#F5DEB3"/>
<path d="M2 14C2 13.4477 2.44772 13 3 13C3.55228 13 4 13.4477 4 14C4 14.5523 3.55228 15 3 15C2.44772 15 2 14.5523 2 14Z" fill="#F5DEB3"/>
<rect x="5" y="13" width="6" height="2" rx="1" fill="#F5DEB3"/>
<rect x="0.5" y="0.5" width="13" height="19" rx="1.5" stroke="#F5DEB3"/>
</svg>
